<svg t="1637562580081" class="icon" viewBox="0 0 1024 1024" version="1.1" xmlns="http://www.w3.org/2000/svg" p-id="8916" width="200" height="200"><path d="M861.866667 179.2l4.266666 4.266667c59.733333 68.266667 85.333333 157.866667 68.266667 245.333333-25.6 125.866667-85.333333 238.933333-174.933333 328.533333-89.6 89.6-204.8 151.466667-328.533334 174.933334-17.066667 4.266667-36.266667 4.266667-53.333333 4.266666-74.666667 0-149.333333-29.866667-202.666667-85.333333-2.133333-2.133333-4.266667-6.4-8.533333-8.533333l-4.266667-4.266667c-59.733333-68.266667-85.333333-157.866667-68.266666-245.333333 25.6-125.866667 85.333333-238.933333 174.933333-328.533334 89.6-89.6 204.8-151.466667 328.533333-174.933333 91.733333-17.066667 187.733333 12.8 256 81.066667l8.533334 8.533333z m-12.8 232.533333c8.533333-38.4 2.133333-78.933333-12.8-115.2-78.933333 134.4-194.133333 194.133333-305.066667 253.866667-115.2 59.733333-224 117.333333-288 253.866667 46.933333 40.533333 108.8 57.6 168.533333 44.8 108.8-21.333333 206.933333-74.666667 285.866667-151.466667s130.133333-177.066667 151.466667-285.866667zM174.933333 612.266667c-8.533333 38.4-2.133333 78.933333 12.8 115.2 78.933333-134.4 194.133333-194.133333 305.066667-253.866667 115.2-59.733333 224-117.333333 288-253.866667C744.533333 187.733333 697.6 170.666667 650.666667 170.666667c-12.8 0-25.6 2.133333-38.4 4.266666-108.8 21.333333-206.933333 74.666667-285.866667 151.466667-76.8 78.933333-130.133333 177.066667-151.466667 285.866667z" fill="#e6e6e6" p-id="8917"></path></svg>